<?xml version="1.0" standalone="no"?>
<!DOCTYPE svg PUBLIC "-//W3C//DTD SVG 20010904//EN"
 "http://www.w3.org/TR/2001/REC-SVG-20010904/DTD/svg10.dtd">
<svg version="1.0" xmlns="http://www.w3.org/2000/svg"
 width="1024.000000pt" height="1024.000000pt" viewBox="0 0 1024.000000 1024.000000"
 preserveAspectRatio="xMidYMid meet">
<metadata>
Created by potrace 1.11, written by Peter Selinger 2001-2013
</metadata>
<g transform="translate(0.000000,1024.000000) scale(0.100000,-0.100000)"
fill="#000000" stroke="none">
<path d="M5002 10175 c-63 -36 -118 -65 -123 -65 -5 0 -9 -4 -9 -8 0 -5 -28
-23 -62 -41 -94 -48 -123 -65 -126 -73 -2 -5 -7 -8 -12 -8 -4 0 -37 -16 -72
-37 -34 -20 -79 -45 -98 -55 -81 -45 -97 -54 -130 -75 -42 -25 -102 -59 -150
-85 -19 -10 -51 -28 -70 -39 -19 -12 -53 -31 -75 -42 -22 -12 -42 -25 -45 -28
-3 -4 -32 -21 -65 -39 -82 -43 -119 -64 -125 -70 -3 -3 -26 -17 -52 -30 -40
-21 -445 -252 -503 -287 -11 -7 -31 -18 -45 -25 -14 -7 -65 -36 -114 -65 -49
-29 -92 -53 -97 -53 -4 0 -14 -6 -21 -13 -7 -6 -31 -21 -53 -32 -22 -11 -47
-25 -55 -32 -8 -6 -37 -23 -65 -38 -54 -29 -50 -27 -300 -170 -93 -54 -190
-109 -215 -123 -25 -14 -88 -50 -140 -80 -129 -74 -141 -81 -250 -143 -52 -29
-98 -58 -102 -64 -4 -5 -8 -6 -8 -1 0 5 -6 4 -12 -2 -7 -6 -42 -27 -78 -47
-36 -21 -81 -46 -100 -57 -19 -11 -201 -115 -405 -230 -203 -116 -382 -219
-397 -229 -15 -11 -30 -19 -33 -19 -3 0 -35 -18 -71 -40 -36 -22 -70 -40 -75
-40 -5 0 -9 -1055 -9 -2563 0 -2502 0 -2563 19 -2579 10 -9 29 -19 42 -23 13
-4 31 -13 39 -20 8 -7 33 -22 55 -34 22 -12 47 -25 55 -30 66 -41 141 -82 146
-81 4 1 10 -2 13 -7 5 -7 30 -22 96 -57 11 -6 22 -13 25 -16 3 -3 19 -12 35
-20 17 -8 69 -38 117 -67 49 -29 88 -49 88 -45 0 4 4 2 8 -3 7 -11 69 -49 147
-91 60 -31 89 -48 95 -54 5 -5 10 -8 115 -65 39 -21 75 -42 81 -46 6 -5 37
-23 70 -40 32 -17 66 -37 74 -43 8 -7 26 -17 40 -24 14 -6 43 -23 65 -37 22
-13 49 -29 60 -34 11 -5 55 -30 98 -55 43 -25 82 -46 87 -46 5 0 14 -8 19 -18
6 -9 11 -14 11 -10 0 7 31 -9 172 -91 51 -30 111 -64 133 -76 63 -34 90 -50
95 -55 3 -3 16 -11 30 -18 14 -6 52 -28 85 -47 33 -20 68 -38 78 -42 9 -3 17
-9 17 -14 0 -5 4 -9 9 -9 9 0 165 -86 201 -110 8 -6 29 -17 45 -26 17 -8 44
-23 60 -34 17 -10 46 -27 65 -37 19 -10 63 -34 97 -55 35 -21 67 -38 73 -38 5
0 10 -4 10 -10 0 -5 5 -10 10 -10 6 0 28 -11 50 -25 22 -14 40 -22 40 -18 0 5
4 3 8 -2 7 -11 69 -49 147 -91 61 -32 89 -48 95 -54 3 -3 16 -11 30 -18 14 -7
43 -23 65 -36 22 -14 63 -36 90 -51 28 -15 75 -42 105 -60 30 -19 64 -38 76
-44 11 -5 56 -30 100 -56 43 -26 99 -58 124 -71 25 -14 68 -38 95 -55 28 -16
57 -33 65 -36 8 -4 17 -9 20 -12 5 -6 15 -12 96 -56 27 -14 63 -35 79 -45 17
-11 44 -26 60 -35 17 -8 57 -31 90 -50 33 -20 68 -38 78 -42 9 -3 17 -8 17
-12 0 -8 70 -37 81 -34 4 2 42 23 84 48 42 25 79 45 81 45 3 0 29 15 59 34 29
19 56 32 59 29 3 -4 6 -2 6 4 0 6 8 13 18 16 9 4 40 20 67 37 28 17 62 35 78
41 15 6 27 15 27 20 0 5 5 9 11 9 6 0 24 9 40 21 16 11 29 17 29 12 0 -4 4 -3
8 2 6 10 245 148 391 228 31 17 58 33 61 36 3 3 21 14 40 25 94 49 363 203
377 216 7 5 19 10 27 10 8 0 16 4 18 8 3 7 27 22 143 87 61 34 255 145 300
172 22 13 48 26 58 30 9 3 17 9 17 14 0 5 9 9 20 9 11 0 20 4 20 9 0 5 12 14
28 20 15 6 41 20 57 30 17 11 46 28 65 39 19 11 52 29 73 41 20 11 52 29 70
39 17 11 75 44 127 74 52 30 122 69 155 88 33 18 67 39 76 46 8 8 19 14 23 14
4 0 55 28 114 62 59 34 118 68 132 75 14 8 48 27 75 44 28 16 58 32 68 35 9 4
17 10 17 15 0 5 9 9 19 9 11 0 21 3 23 8 3 6 71 47 288 170 25 14 59 33 75 43
17 10 53 30 80 45 28 14 62 35 77 45 14 11 29 19 32 19 3 0 40 20 82 45 41 25
78 45 80 45 3 0 28 15 57 33 29 18 66 40 82 48 17 9 86 48 154 87 68 40 125
72 127 72 3 0 23 12 47 27 23 15 60 36 82 48 l40 22 0 2563 0 2563 -30 18
c-37 22 -164 93 -225 126 -24 14 -57 33 -71 44 -15 10 -32 19 -38 19 -6 0 -11
4 -11 10 0 5 -3 9 -7 8 -5 -2 -26 8 -48 22 -38 23 -66 39 -186 105 -30 16 -62
34 -71 40 -83 51 -202 118 -250 142 -21 10 -38 21 -38 25 0 5 -4 8 -9 8 -5 0
-44 20 -85 45 -42 25 -79 45 -83 45 -4 0 -14 6 -22 14 -9 7 -45 28 -81 47 -36
18 -67 36 -70 39 -4 5 -88 53 -239 138 -83 46 -146 82 -161 92 -8 6 -31 18
-50 28 -19 9 -36 20 -38 25 -2 4 -8 7 -13 7 -5 0 -26 11 -47 23 -20 13 -68 41
-107 62 -38 21 -78 45 -87 53 -10 8 -18 12 -18 8 0 -4 -15 3 -32 16 -18 13
-42 28 -53 34 -11 6 -41 22 -67 37 -27 15 -69 39 -95 54 -27 14 -61 34 -78 44
-72 43 -139 79 -147 79 -4 0 -8 5 -8 12 0 6 -3 8 -6 5 -4 -4 -19 3 -35 14 -15
10 -92 56 -171 100 -79 45 -161 92 -183 105 -22 14 -56 32 -75 42 -19 9 -37
20 -40 23 -3 3 -18 12 -35 21 -16 8 -104 58 -195 110 -91 53 -183 106 -205
118 -22 12 -65 37 -96 56 -31 19 -61 34 -67 34 -6 0 -12 3 -14 8 -1 4 -16 14
-33 23 -16 9 -70 39 -119 67 -49 29 -93 52 -97 52 -5 0 -9 5 -9 10 0 6 -5 10
-11 10 -9 0 -92 45 -149 80 -39 24 -172 100 -176 100 -2 0 -23 12 -47 27 -23
14 -44 26 -47 25 -3 0 -12 5 -20 11 -16 13 -76 47 -82 47 -1 -1 -54 -30 -116
-65z"/>
</g>
</svg>
